<svg xmlns="http://www.w3.org/2000/svg" xmlns:xlink="http://www.w3.org/1999/xlink" width="500" zoomAndPan="magnify" viewBox="0 0 375 374.999991" height="500" preserveAspectRatio="xMidYMid meet" version="1.0"><defs><g/><clipPath id="c531a92cc8"><path d="M 14.484375 126.207031 L 165.984375 126.207031 L 165.984375 277.707031 L 14.484375 277.707031 Z M 14.484375 126.207031 " clip-rule="nonzero"/></clipPath><clipPath id="c547ca9c14"><path d="M 105.585938 126.207031 L 257.386719 126.207031 L 257.386719 278.007812 L 105.585938 278.007812 Z M 105.585938 126.207031 " clip-rule="nonzero"/></clipPath><clipPath id="2640b78720"><path d="M 181.484375 126.207031 C 139.566406 126.207031 105.585938 160.1875 105.585938 202.105469 C 105.585938 244.023438 139.566406 278.007812 181.484375 278.007812 C 223.40625 278.007812 257.386719 244.023438 257.386719 202.105469 C 257.386719 160.1875 223.40625 126.207031 181.484375 126.207031 Z M 181.484375 126.207031 " clip-rule="nonzero"/></clipPath><clipPath id="fbde7b21cc"><path d="M 0.585938 0.207031 L 152.386719 0.207031 L 152.386719 152.007812 L 0.585938 152.007812 Z M 0.585938 0.207031 " clip-rule="nonzero"/></clipPath><clipPath id="25afd2f455"><path d="M 76.484375 0.207031 C 34.566406 0.207031 0.585938 34.1875 0.585938 76.105469 C 0.585938 118.023438 34.566406 152.007812 76.484375 152.007812 C 118.40625 152.007812 152.386719 118.023438 152.386719 76.105469 C 152.386719 34.1875 118.40625 0.207031 76.484375 0.207031 Z M 76.484375 0.207031 " clip-rule="nonzero"/></clipPath><clipPath id="9bec4a2db4"><rect x="0" width="153" y="0" height="153"/></clipPath><clipPath id="d11cc2a5e7"><rect x="0" width="83" y="0" height="205"/></clipPath><clipPath id="b02c1d4e20"><path d="M 40 65 L 224 65 L 224 227 L 40 227 Z M 40 65 " clip-rule="nonzero"/></clipPath><clipPath id="2cca4de8a6"><path d="M 37.5 176.386719 L 186.679688 62.800781 L 227.117188 115.90625 L 77.9375 229.496094 Z M 37.5 176.386719 " clip-rule="nonzero"/></clipPath><clipPath id="a6a999a5d3"><path d="M 41.589844 181.757812 L 73.476562 223.636719 C 75.734375 226.601562 79.972656 227.175781 82.9375 224.917969 L 220.945312 119.835938 C 223.910156 117.578125 224.484375 113.34375 222.226562 110.378906 L 190.339844 68.5 C 188.082031 65.53125 183.84375 64.957031 180.878906 67.21875 L 42.871094 172.296875 C 39.90625 174.554688 39.332031 178.789062 41.589844 181.757812 Z M 41.589844 181.757812 " clip-rule="nonzero"/></clipPath><clipPath id="7e5ae7078a"><path d="M 37.5 176.386719 L 186.082031 63.253906 L 226.066406 115.765625 L 77.484375 228.898438 Z M 37.5 176.386719 " clip-rule="nonzero"/></clipPath><clipPath id="ac6a49ff43"><path d="M 3 5 L 181 5 L 181 157 L 3 157 Z M 3 5 " clip-rule="nonzero"/></clipPath><clipPath id="6c0bcc458c"><path d="M -2.5 111.386719 L 146.679688 -2.199219 L 187.117188 50.90625 L 37.9375 164.496094 Z M -2.5 111.386719 " clip-rule="nonzero"/></clipPath><clipPath id="4c2262e92e"><path d="M 1.589844 116.757812 L 33.476562 158.636719 C 35.734375 161.601562 39.972656 162.175781 42.9375 159.917969 L 180.945312 54.835938 C 183.910156 52.578125 184.484375 48.34375 182.226562 45.378906 L 150.339844 3.5 C 148.082031 0.53125 143.84375 -0.0429688 140.878906 2.21875 L 2.871094 107.296875 C -0.09375 109.554688 -0.667969 113.789062 1.589844 116.757812 Z M 1.589844 116.757812 " clip-rule="nonzero"/></clipPath><clipPath id="4137fec64c"><path d="M -2.5 111.386719 L 146.082031 -1.746094 L 186.066406 50.765625 L 37.484375 163.898438 Z M -2.5 111.386719 " clip-rule="nonzero"/></clipPath><clipPath id="805cecb77a"><path d="M 37.5625 164 L 186.144531 50.867188 L 146.160156 -1.644531 L -2.421875 111.488281 Z M 37.5625 164 " clip-rule="nonzero"/></clipPath><clipPath id="1a6d28feba"><rect x="0" width="184" y="0" height="162"/></clipPath><clipPath id="e4f709973a"><rect x="0" width="81" y="0" height="205"/></clipPath><clipPath id="5cbab1f8f0"><rect x="0" width="84" y="0" height="205"/></clipPath></defs><g clip-path="url(#c531a92cc8)"><path fill="#ffaa00" d="M 166.277344 278 L 166.277344 277.394531 L 24.90625 277.394531 L 166.277344 268.558594 L 166.277344 267.953125 L 24.941406 276.785156 L 166.277344 259.117188 L 166.277344 258.507812 L 25.015625 276.167969 L 166.277344 249.679688 L 166.277344 249.066406 L 25.125 275.53125 L 166.277344 240.242188 L 166.277344 239.621094 L 25.269531 274.871094 L 166.277344 230.808594 L 166.277344 230.171875 L 25.453125 274.179688 L 166.277344 221.371094 L 166.277344 220.726562 L 25.667969 273.453125 L 166.277344 211.9375 L 166.277344 211.277344 L 25.910156 272.6875 L 166.277344 202.503906 L 166.277344 201.828125 L 26.183594 271.875 L 166.277344 193.070312 L 166.277344 192.378906 L 26.476562 271.015625 L 166.277344 183.640625 L 166.277344 182.925781 L 26.796875 270.101562 L 166.277344 174.207031 L 166.277344 173.472656 L 27.136719 269.132812 L 166.277344 164.777344 L 166.277344 164.023438 L 27.5 268.101562 L 166.277344 155.347656 L 166.277344 154.570312 L 27.886719 267.011719 L 166.277344 145.917969 L 166.277344 145.117188 L 28.28125 265.863281 L 166.277344 136.492188 L 166.277344 135.660156 L 28.691406 264.644531 L 166.277344 127.0625 L 166.277344 126.207031 L 14.484375 278 Z M 166.277344 278 " fill-opacity="1" fill-rule="nonzero"/></g><g clip-path="url(#c547ca9c14)"><g clip-path="url(#2640b78720)"><g transform="matrix(1, 0, 0, 1, 105, 126)"><g clip-path="url(#9bec4a2db4)"><g clip-path="url(#fbde7b21cc)"><g clip-path="url(#25afd2f455)"><path fill="#ffc736" d="M 0.585938 0.207031 L 152.386719 0.207031 L 152.386719 152.007812 L 0.585938 152.007812 Z M 0.585938 0.207031 " fill-opacity="1" fill-rule="nonzero"/></g></g></g></g></g></g><g transform="matrix(1, 0, 0, 1, 147, 119)"><g clip-path="url(#d11cc2a5e7)"><g fill="#dc3545" fill-opacity="1"><g transform="translate(0.489487, 156.974541)"><g><path d="M 41.484375 2.015625 C 30.722656 2.015625 22.65625 -1.4375 17.28125 -8.34375 C 11.90625 -15.257812 9.21875 -24.335938 9.21875 -35.578125 L 9.21875 -107.15625 L 30.390625 -108.03125 L 30.390625 -33.84375 C 30.390625 -30.101562 30.601562 -26.9375 31.03125 -24.34375 C 31.46875 -21.75 32.550781 -19.539062 34.28125 -17.71875 C 36.007812 -15.894531 38.648438 -14.984375 42.203125 -14.984375 C 45.566406 -14.984375 48.039062 -15.914062 49.625 -17.78125 C 51.207031 -19.65625 52.1875 -21.863281 52.5625 -24.40625 C 52.945312 -26.957031 53.140625 -30.203125 53.140625 -34.140625 L 53.140625 -106.296875 L 72.453125 -108.03125 L 72.453125 -38.03125 C 72.453125 -27.84375 70.457031 -18.617188 66.46875 -10.359375 C 62.488281 -2.109375 54.160156 2.015625 41.484375 2.015625 Z M 41.484375 2.015625 "/></g></g></g></g></g><g clip-path="url(#b02c1d4e20)"><g clip-path="url(#2cca4de8a6)"><g clip-path="url(#a6a999a5d3)"><g clip-path="url(#7e5ae7078a)"><g transform="matrix(1, 0, 0, 1, 40, 65)"><g clip-path="url(#1a6d28feba)"><g clip-path="url(#ac6a49ff43)"><g clip-path="url(#6c0bcc458c)"><g clip-path="url(#4c2262e92e)"><g clip-path="url(#4137fec64c)"><g clip-path="url(#805cecb77a)"><path fill="#ffac2e" d="M 156.410156 73.183594 C 146.644531 80.945312 135.523438 86.890625 123.929688 92.25 C 112.351562 97.597656 100.296875 102.355469 88.71875 107.703125 C 77.140625 113.046875 66.003906 119.007812 56.242188 126.738281 C 46.476562 134.5 38.070312 144.046875 31.964844 156.582031 C 22.363281 143.972656 12.761719 131.363281 3.164062 118.757812 C 9.269531 106.222656 17.675781 96.675781 27.425781 88.925781 C 37.175781 81.179688 48.3125 75.21875 59.902344 69.886719 C 71.480469 64.542969 83.535156 59.785156 95.113281 54.4375 C 106.691406 49.089844 117.828125 43.128906 127.589844 35.398438 C 137.339844 27.648438 145.746094 18.105469 151.851562 5.566406 C 161.453125 18.175781 171.050781 30.785156 180.652344 43.394531 C 174.566406 55.890625 166.171875 65.449219 156.410156 73.183594 Z M 46.359375 133.066406 C 46.683594 133.492188 47.308594 133.464844 47.753906 133 C 48.226562 132.542969 48.703125 132.082031 49.175781 131.621094 C 49.632812 131.171875 49.753906 130.480469 49.441406 130.070312 L 47.722656 127.808594 C 47.398438 127.382812 46.757812 127.394531 46.300781 127.84375 C 45.828125 128.304688 45.351562 128.765625 44.878906 129.226562 C 44.421875 129.671875 44.324219 130.398438 44.636719 130.808594 Z M 42.160156 137.683594 C 42.484375 138.113281 43.089844 138.050781 43.511719 137.554688 C 43.949219 137.046875 44.398438 136.554688 44.847656 136.066406 C 45.28125 135.585938 45.378906 134.863281 45.054688 134.433594 L 43.320312 132.160156 C 42.996094 131.734375 42.378906 131.777344 41.945312 132.257812 C 41.496094 132.75 41.046875 133.242188 40.613281 133.75 C 40.191406 134.242188 40.105469 134.984375 40.429688 135.410156 Z M 38.238281 142.695312 C 38.5625 143.121094 39.128906 143.011719 39.527344 142.484375 C 39.941406 141.945312 40.351562 141.40625 40.765625 140.867188 C 41.175781 140.355469 41.25 139.601562 40.925781 139.175781 L 39.191406 136.898438 C 38.867188 136.472656 38.277344 136.550781 37.867188 137.0625 C 37.453125 137.601562 37.039062 138.140625 36.628906 138.679688 C 36.230469 139.207031 36.179688 139.992188 36.503906 140.417969 Z M 34.644531 148.101562 C 34.96875 148.527344 35.511719 148.390625 35.871094 147.816406 C 36.25 147.226562 36.625 146.640625 37.003906 146.054688 C 37.375 145.496094 37.425781 144.710938 37.101562 144.28125 L 35.367188 142.007812 C 35.042969 141.582031 34.476562 141.6875 34.105469 142.246094 C 33.714844 142.816406 33.335938 143.40625 32.972656 144.007812 C 32.613281 144.582031 32.585938 145.398438 32.910156 145.828125 Z M 31.367188 153.964844 C 31.695312 154.390625 32.210938 154.21875 32.539062 153.597656 C 32.878906 152.964844 33.21875 152.332031 33.5625 151.695312 C 33.898438 151.089844 33.910156 150.257812 33.597656 149.84375 L 31.867188 147.570312 C 31.542969 147.144531 31.011719 147.296875 30.671875 147.90625 C 30.320312 148.523438 29.980469 149.15625 29.652344 149.804688 C 29.324219 150.429688 29.335938 151.292969 29.648438 151.703125 Z M 7.027344 114.914062 C 6.703125 114.488281 6.171875 114.644531 5.835938 115.25 C 5.480469 115.867188 5.140625 116.503906 4.8125 117.152344 C 4.488281 117.773438 4.496094 118.640625 4.808594 119.050781 L 6.542969 121.324219 C 6.867188 121.753906 7.386719 121.582031 7.710938 120.960938 C 8.050781 120.324219 8.394531 119.691406 8.734375 119.058594 C 9.070312 118.453125 9.085938 117.617188 8.773438 117.207031 Z M 10.53125 109.351562 C 10.207031 108.925781 9.636719 109.035156 9.265625 109.59375 C 8.875 110.164062 8.5 110.75 8.132812 111.351562 C 7.773438 111.925781 7.746094 112.746094 8.070312 113.171875 L 9.804688 115.449219 C 10.128906 115.875 10.671875 115.734375 11.035156 115.160156 C 11.410156 114.574219 11.789062 113.988281 12.164062 113.402344 C 12.539062 112.84375 12.585938 112.054688 12.261719 111.628906 Z M 14.355469 104.246094 C 14.027344 103.820312 13.4375 103.894531 13.027344 104.40625 C 12.617188 104.945312 12.203125 105.484375 11.789062 106.023438 C 11.390625 106.550781 11.34375 107.335938 11.667969 107.765625 L 13.386719 110.023438 C 13.710938 110.449219 14.277344 110.34375 14.675781 109.816406 C 15.089844 109.277344 15.503906 108.738281 15.914062 108.199219 C 16.324219 107.6875 16.398438 106.929688 16.074219 106.503906 C 15.496094 105.746094 14.929688 105.003906 14.355469 104.246094 Z M 18.480469 99.503906 C 18.15625 99.078125 17.542969 99.121094 17.109375 99.601562 C 16.660156 100.09375 16.210938 100.585938 15.773438 101.09375 C 15.351562 101.589844 15.265625 102.328125 15.589844 102.753906 C 16.167969 103.511719 16.746094 104.273438 17.324219 105.03125 C 17.648438 105.457031 18.25 105.398438 18.671875 104.902344 C 19.109375 104.394531 19.558594 103.902344 20.007812 103.410156 C 20.441406 102.929688 20.539062 102.207031 20.214844 101.78125 Z M 22.871094 95.140625 C 22.546875 94.714844 21.90625 94.726562 21.449219 95.175781 C 20.976562 95.632812 20.503906 96.09375 20.03125 96.554688 C 19.570312 97.003906 19.472656 97.726562 19.785156 98.136719 L 21.519531 100.414062 C 21.84375 100.839844 22.472656 100.8125 22.917969 100.347656 C 23.390625 99.886719 23.863281 99.425781 24.335938 98.964844 C 24.792969 98.519531 24.917969 97.824219 24.601562 97.414062 C 24.027344 96.65625 23.449219 95.898438 22.871094 95.140625 Z M 26.996094 98.460938 C 20.75 104.09375 15.207031 110.609375 10.609375 118.40625 C 9.839844 119.6875 9.832031 121.515625 10.519531 122.417969 C 16.449219 130.207031 22.378906 137.996094 28.3125 145.785156 C 29.007812 146.699219 30.144531 146.359375 30.902344 145.058594 C 35.5 137.265625 41.046875 130.746094 47.292969 125.117188 C 48.328125 124.179688 48.621094 122.730469 47.925781 121.816406 C 41.992188 114.027344 36.0625 106.238281 30.132812 98.449219 C 29.445312 97.546875 28.015625 97.539062 26.996094 98.460938 Z M 27.539062 91.109375 C 27.214844 90.683594 26.550781 90.664062 26.070312 91.082031 C 25.5625 91.496094 25.0625 91.921875 24.566406 92.351562 C 24.085938 92.769531 23.960938 93.460938 24.277344 93.871094 L 26.007812 96.144531 C 26.332031 96.574219 26.972656 96.558594 27.453125 96.144531 C 27.949219 95.714844 28.449219 95.285156 28.957031 94.875 C 29.453125 94.472656 29.585938 93.796875 29.261719 93.371094 C 28.683594 92.613281 28.117188 91.867188 27.539062 91.109375 Z M 52.394531 123.753906 C 52.070312 123.328125 51.40625 123.308594 50.925781 123.722656 C 50.414062 124.136719 49.917969 124.566406 49.421875 124.992188 C 48.9375 125.410156 48.816406 126.101562 49.128906 126.511719 C 49.707031 127.273438 50.285156 128.03125 50.863281 128.789062 C 51.1875 129.214844 51.828125 129.203125 52.308594 128.785156 C 52.804688 128.355469 53.300781 127.929688 53.8125 127.515625 C 54.304688 127.113281 54.441406 126.4375 54.113281 126.011719 Z M 76.878906 111.425781 C 77.203125 111.851562 77.925781 111.949219 78.503906 111.660156 C 79.097656 111.359375 79.691406 111.054688 80.285156 110.753906 C 80.863281 110.464844 81.070312 109.882812 80.757812 109.472656 L 79.023438 107.195312 C 78.699219 106.769531 77.976562 106.671875 77.398438 106.960938 C 76.804688 107.261719 76.210938 107.566406 75.617188 107.867188 C 75.039062 108.15625 74.832031 108.738281 75.160156 109.164062 Z M 71.402344 114.394531 C 71.726562 114.824219 72.441406 114.90625 73.003906 114.597656 C 73.585938 114.28125 74.167969 113.964844 74.75 113.644531 C 75.316406 113.339844 75.523438 112.757812 75.195312 112.332031 L 73.464844 110.054688 C 73.140625 109.628906 72.417969 109.53125 71.851562 109.835938 C 71.269531 110.15625 70.6875 110.472656 70.105469 110.792969 C 69.539062 111.097656 69.347656 111.695312 69.671875 112.121094 Z M 66.089844 117.542969 C 66.414062 117.972656 67.113281 118.039062 67.652344 117.699219 C 68.210938 117.351562 68.78125 117.015625 69.351562 116.683594 C 69.902344 116.363281 70.085938 115.75 69.773438 115.335938 C 69.195312 114.578125 68.617188 113.820312 68.042969 113.0625 C 67.714844 112.636719 67.003906 112.554688 66.464844 112.890625 C 65.894531 113.226562 65.335938 113.574219 64.765625 113.910156 C 64.226562 114.246094 64.042969 114.859375 64.367188 115.285156 Z M 60.925781 120.925781 C 61.25 121.351562 61.9375 121.402344 62.457031 121.035156 C 63 120.667969 63.546875 120.304688 64.089844 119.9375 C 64.621094 119.585938 64.804688 118.972656 64.480469 118.546875 L 62.746094 116.269531 C 62.421875 115.84375 61.734375 115.792969 61.191406 116.128906 C 60.648438 116.496094 60.101562 116.863281 59.554688 117.226562 C 59.027344 117.582031 58.867188 118.226562 59.179688 118.636719 Z M 55.972656 124.550781 C 56.296875 124.976562 56.960938 124.996094 57.464844 124.609375 C 57.984375 124.210938 58.507812 123.816406 59.042969 123.433594 C 59.558594 123.066406 59.71875 122.421875 59.390625 121.996094 C 58.816406 121.234375 58.238281 120.476562 57.660156 119.71875 C 57.335938 119.292969 56.660156 119.257812 56.140625 119.625 C 55.609375 120.007812 55.085938 120.40625 54.566406 120.800781 C 54.058594 121.1875 53.914062 121.847656 54.238281 122.273438 Z M 32.832031 87.082031 C 32.507812 86.652344 31.832031 86.617188 31.316406 86.988281 C 30.78125 87.371094 30.261719 87.765625 29.738281 88.164062 C 29.234375 88.546875 29.085938 89.207031 29.414062 89.636719 L 31.144531 91.910156 C 31.46875 92.335938 32.132812 92.355469 32.636719 91.972656 C 33.160156 91.574219 33.679688 91.175781 34.214844 90.796875 C 34.730469 90.425781 34.890625 89.78125 34.566406 89.355469 Z M 37.921875 83.632812 C 37.59375 83.203125 36.90625 83.15625 36.367188 83.492188 C 35.820312 83.855469 35.273438 84.222656 34.730469 84.589844 C 34.199219 84.941406 34.042969 85.585938 34.355469 85.996094 L 36.085938 88.273438 C 36.410156 88.699219 37.097656 88.75 37.617188 88.378906 C 38.164062 88.015625 38.707031 87.648438 39.253906 87.285156 C 39.78125 86.929688 39.964844 86.316406 39.640625 85.890625 C 39.0625 85.132812 38.496094 84.390625 37.921875 83.632812 Z M 43.203125 80.40625 C 42.878906 79.980469 42.167969 79.898438 41.625 80.238281 C 41.054688 80.570312 40.496094 80.921875 39.929688 81.253906 C 39.386719 81.589844 39.203125 82.203125 39.527344 82.632812 L 41.261719 84.90625 C 41.585938 85.332031 42.285156 85.398438 42.828125 85.0625 C 43.386719 84.710938 43.953125 84.378906 44.523438 84.042969 C 45.078125 83.722656 45.261719 83.109375 44.945312 82.699219 C 44.347656 81.910156 43.769531 81.152344 43.203125 80.40625 Z M 48.613281 77.386719 C 48.289062 76.960938 47.566406 76.859375 47 77.167969 C 46.417969 77.484375 45.835938 77.804688 45.253906 78.121094 C 44.691406 78.425781 44.496094 79.023438 44.820312 79.449219 L 46.550781 81.726562 C 46.878906 82.152344 47.589844 82.234375 48.15625 81.929688 C 48.738281 81.609375 49.316406 81.292969 49.898438 80.976562 C 50.464844 80.667969 50.671875 80.085938 50.347656 79.660156 Z M 54.175781 74.523438 C 53.847656 74.097656 53.125 74 52.546875 74.289062 C 51.953125 74.59375 51.359375 74.894531 50.765625 75.199219 C 50.1875 75.488281 49.984375 76.070312 50.308594 76.496094 L 52.039062 78.769531 C 52.363281 79.199219 53.089844 79.296875 53.667969 79.003906 C 54.261719 78.703125 54.851562 78.402344 55.445312 78.097656 C 56.023438 77.808594 56.230469 77.226562 55.917969 76.816406 C 55.328125 76.042969 54.75 75.285156 54.175781 74.523438 Z M 36.589844 90.835938 C 35.449219 91.628906 35.128906 93.046875 35.8125 93.945312 L 53.617188 117.328125 C 54.316406 118.246094 55.765625 118.316406 56.898438 117.503906 C 63.746094 112.664062 71.128906 108.5625 78.808594 104.8125 C 80.082031 104.191406 80.546875 102.964844 79.847656 102.050781 C 73.917969 94.261719 67.988281 86.472656 62.054688 78.683594 C 61.359375 77.765625 59.777344 77.523438 58.5 78.144531 C 50.824219 81.894531 43.4375 85.996094 36.589844 90.835938 Z M 59.824219 71.820312 C 59.5 71.390625 58.765625 71.277344 58.175781 71.554688 C 57.570312 71.839844 56.964844 72.125 56.359375 72.414062 C 55.769531 72.6875 55.5625 73.269531 55.875 73.679688 C 56.453125 74.4375 57.03125 75.195312 57.609375 75.953125 C 57.933594 76.378906 58.667969 76.496094 59.246094 76.203125 C 59.851562 75.917969 60.457031 75.632812 61.0625 75.34375 C 61.652344 75.070312 61.871094 74.503906 61.546875 74.078125 Z M 84.679688 104.460938 C 84.355469 104.035156 83.621094 103.921875 83.03125 104.195312 C 82.425781 104.480469 81.820312 104.769531 81.214844 105.054688 C 80.625 105.328125 80.417969 105.910156 80.730469 106.320312 L 82.460938 108.597656 C 82.789062 109.023438 83.523438 109.136719 84.101562 108.847656 C 84.707031 108.558594 85.3125 108.273438 85.917969 107.988281 C 86.507812 107.714844 86.726562 107.148438 86.402344 106.722656 Z M 111.8125 95.609375 C 112.136719 96.035156 112.882812 96.167969 113.484375 95.90625 C 114.101562 95.636719 114.71875 95.367188 115.339844 95.097656 C 115.941406 94.835938 116.160156 94.273438 115.84375 93.859375 L 114.113281 91.585938 C 113.789062 91.160156 113.039062 91.03125 112.449219 91.304688 C 111.832031 91.574219 111.214844 91.84375 110.597656 92.117188 C 109.996094 92.375 109.765625 92.925781 110.089844 93.351562 Z M 106.003906 98.109375 C 106.328125 98.539062 107.074219 98.667969 107.675781 98.410156 C 108.292969 98.136719 108.925781 97.882812 109.542969 97.613281 C 110.144531 97.355469 110.375 96.804688 110.050781 96.378906 C 109.472656 95.621094 108.894531 94.859375 108.316406 94.101562 C 107.992188 93.675781 107.246094 93.546875 106.644531 93.804688 C 106.023438 94.074219 105.394531 94.332031 104.777344 94.601562 C 104.175781 94.859375 103.945312 95.410156 104.269531 95.835938 Z M 100.167969 100.609375 C 100.492188 101.035156 101.238281 101.164062 101.839844 100.90625 C 102.457031 100.636719 103.089844 100.378906 103.707031 100.109375 C 104.308594 99.851562 104.539062 99.300781 104.214844 98.875 L 102.480469 96.597656 C 102.15625 96.171875 101.40625 96.042969 100.804688 96.300781 C 100.1875 96.574219 99.558594 96.828125 98.941406 97.097656 C 98.339844 97.355469 98.109375 97.90625 98.433594 98.332031 Z M 94.371094 103.125 C 94.695312 103.550781 95.441406 103.679688 96.03125 103.40625 C 96.648438 103.136719 97.265625 102.863281 97.886719 102.59375 C 98.488281 102.335938 98.71875 101.785156 98.390625 101.359375 L 96.660156 99.085938 C 96.335938 98.65625 95.585938 98.527344 94.984375 98.785156 C 94.367188 99.058594 93.75 99.328125 93.132812 99.597656 C 92.53125 99.855469 92.3125 100.421875 92.625 100.832031 Z M 88.605469 105.714844 C 88.929688 106.144531 89.667969 106.257812 90.269531 105.996094 C 90.886719 105.726562 91.492188 105.441406 92.109375 105.171875 C 92.710938 104.910156 92.929688 104.347656 92.605469 103.917969 L 90.871094 101.644531 C 90.546875 101.21875 89.800781 101.089844 89.210938 101.363281 C 88.59375 101.632812 87.988281 101.917969 87.367188 102.191406 C 86.777344 102.464844 86.546875 103.015625 86.875 103.441406 Z M 66.035156 68.988281 C 65.707031 68.5625 64.960938 68.433594 64.371094 68.707031 C 63.753906 68.980469 63.148438 69.265625 62.53125 69.535156 C 61.941406 69.808594 61.710938 70.359375 62.035156 70.785156 C 62.613281 71.542969 63.191406 72.304688 63.765625 73.0625 C 64.09375 73.488281 64.828125 73.601562 65.429688 73.34375 C 66.046875 73.074219 66.652344 72.785156 67.269531 72.515625 C 67.871094 72.257812 68.089844 71.691406 67.765625 71.265625 Z M 71.832031 66.445312 C 71.507812 66.019531 70.761719 65.890625 70.160156 66.148438 C 69.542969 66.417969 68.925781 66.6875 68.304688 66.960938 C 67.703125 67.21875 67.484375 67.785156 67.800781 68.195312 L 69.53125 70.46875 C 69.855469 70.894531 70.605469 71.027344 71.195312 70.75 C 71.8125 70.480469 72.429688 70.210938 73.046875 69.941406 C 73.648438 69.679688 73.878906 69.132812 73.554688 68.703125 Z M 77.652344 63.960938 C 77.328125 63.535156 76.582031 63.40625 75.980469 63.664062 C 75.363281 63.933594 74.734375 64.1875 74.113281 64.457031 C 73.511719 64.71875 73.28125 65.265625 73.609375 65.695312 L 75.339844 67.96875 C 75.664062 68.394531 76.414062 68.523438 77.015625 68.265625 C 77.632812 67.996094 78.261719 67.742188 78.878906 67.46875 C 79.480469 67.210938 79.710938 66.664062 79.386719 66.234375 Z M 83.476562 61.449219 C 83.152344 61.019531 82.40625 60.890625 81.804688 61.148438 C 81.1875 61.421875 80.558594 61.675781 79.9375 61.945312 C 79.335938 62.203125 79.105469 62.753906 79.433594 63.179688 L 81.164062 65.457031 C 81.488281 65.882812 82.238281 66.011719 82.839844 65.753906 C 83.457031 65.484375 84.085938 65.230469 84.703125 64.957031 C 85.304688 64.699219 85.535156 64.148438 85.210938 63.722656 C 84.632812 62.964844 84.054688 62.207031 83.476562 61.449219 Z M 89.273438 58.929688 C 88.949219 58.503906 88.203125 58.375 87.613281 58.648438 C 86.996094 58.921875 86.378906 59.191406 85.757812 59.460938 C 85.15625 59.71875 84.925781 60.269531 85.253906 60.695312 C 85.828125 61.453125 86.40625 62.214844 86.984375 62.972656 C 87.308594 63.398438 88.058594 63.527344 88.660156 63.269531 C 89.277344 63 89.894531 62.726562 90.511719 62.457031 C 91.113281 62.199219 91.332031 61.632812 91.019531 61.222656 C 90.429688 60.449219 89.851562 59.691406 89.273438 58.929688 Z M 69.902344 72.859375 C 68.589844 73.429688 68.117188 74.640625 68.8125 75.558594 C 74.746094 83.347656 80.675781 91.136719 86.605469 98.925781 C 87.304688 99.84375 88.898438 100.101562 90.210938 99.527344 C 98.078125 96.03125 106.078125 92.738281 113.960938 89.253906 C 115.273438 88.683594 115.746094 87.472656 115.050781 86.554688 C 109.117188 78.765625 103.1875 70.976562 97.257812 63.1875 C 96.558594 62.269531 94.964844 62.011719 93.65625 62.585938 C 85.773438 66.066406 77.757812 69.375 69.902344 72.859375 Z M 95.050781 56.355469 C 94.726562 55.929688 93.992188 55.816406 93.390625 56.074219 C 92.769531 56.34375 92.164062 56.628906 91.546875 56.902344 C 90.945312 57.160156 90.726562 57.726562 91.050781 58.152344 L 92.785156 60.425781 C 93.109375 60.855469 93.855469 60.984375 94.445312 60.707031 C 95.066406 60.4375 95.671875 60.152344 96.289062 59.882812 C 96.878906 59.605469 97.109375 59.058594 96.785156 58.628906 Z M 119.90625 88.996094 C 119.582031 88.570312 118.84375 88.457031 118.242188 88.714844 C 117.625 88.988281 117.019531 89.273438 116.402344 89.542969 C 115.800781 89.800781 115.582031 90.367188 115.90625 90.792969 L 117.640625 93.070312 C 117.964844 93.496094 118.710938 93.625 119.300781 93.351562 C 119.917969 93.082031 120.523438 92.792969 121.140625 92.523438 C 121.730469 92.25 121.960938 91.699219 121.636719 91.273438 Z M 145.75 78.457031 C 146.074219 78.882812 146.773438 78.949219 147.304688 78.59375 C 147.847656 78.230469 148.40625 77.878906 148.9375 77.5 C 149.46875 77.144531 149.625 76.5 149.3125 76.089844 C 148.738281 75.332031 148.160156 74.574219 147.582031 73.816406 C 147.257812 73.386719 146.570312 73.339844 146.050781 73.707031 C 145.507812 74.074219 144.960938 74.4375 144.414062 74.804688 C 143.886719 75.15625 143.703125 75.769531 144.027344 76.195312 C 144.59375 76.9375 145.171875 77.699219 145.75 78.457031 Z M 140.464844 81.679688 C 140.789062 82.105469 141.503906 82.1875 142.042969 81.851562 C 142.613281 81.515625 143.183594 81.183594 143.742188 80.832031 C 144.28125 80.496094 144.464844 79.882812 144.140625 79.457031 L 142.40625 77.179688 C 142.082031 76.753906 141.382812 76.6875 140.839844 77.027344 C 140.285156 77.375 139.714844 77.710938 139.144531 78.042969 C 138.589844 78.363281 138.410156 78.976562 138.722656 79.386719 Z M 135.042969 84.6875 C 135.367188 85.113281 136.089844 85.210938 136.65625 84.90625 C 137.238281 84.585938 137.820312 84.269531 138.402344 83.949219 C 138.96875 83.644531 139.160156 83.046875 138.835938 82.621094 L 137.105469 80.34375 C 136.777344 79.917969 136.066406 79.835938 135.5 80.144531 C 134.921875 80.460938 134.339844 80.777344 133.757812 81.097656 C 133.191406 81.402344 132.984375 81.984375 133.308594 82.410156 Z M 129.484375 87.546875 C 129.808594 87.972656 130.53125 88.070312 131.121094 87.796875 C 131.714844 87.496094 132.308594 87.191406 132.902344 86.890625 C 133.480469 86.597656 133.6875 86.019531 133.359375 85.589844 L 131.628906 83.316406 C 131.304688 82.890625 130.582031 82.792969 130.003906 83.082031 C 129.410156 83.382812 128.816406 83.6875 128.222656 83.988281 C 127.644531 84.277344 127.425781 84.84375 127.75 85.269531 Z M 123.832031 90.253906 C 124.15625 90.679688 124.890625 90.792969 125.480469 90.519531 C 126.085938 90.230469 126.691406 89.945312 127.296875 89.660156 C 127.886719 89.382812 128.09375 88.804688 127.78125 88.390625 L 126.046875 86.117188 C 125.722656 85.691406 124.988281 85.578125 124.410156 85.867188 C 123.804688 86.152344 123.199219 86.441406 122.59375 86.726562 C 122.003906 87 121.785156 87.566406 122.109375 87.992188 C 122.675781 88.734375 123.253906 89.492188 123.832031 90.253906 Z M 101.199219 53.445312 C 100.875 53.019531 100.136719 52.90625 99.558594 53.195312 C 98.953125 53.484375 98.347656 53.769531 97.742188 54.054688 C 97.152344 54.332031 96.933594 54.894531 97.257812 55.324219 C 97.835938 56.082031 98.414062 56.839844 98.992188 57.597656 C 99.316406 58.023438 100.050781 58.136719 100.640625 57.863281 C 101.246094 57.578125 101.855469 57.289062 102.460938 57.003906 C 103.050781 56.730469 103.253906 56.148438 102.941406 55.738281 C 102.351562 54.964844 101.777344 54.207031 101.199219 53.445312 Z M 106.777344 50.644531 C 106.453125 50.21875 105.730469 50.121094 105.152344 50.410156 C 104.558594 50.714844 103.964844 51.015625 103.371094 51.316406 C 102.792969 51.609375 102.574219 52.175781 102.898438 52.601562 L 104.632812 54.875 C 104.957031 55.300781 105.679688 55.398438 106.269531 55.125 C 106.863281 54.824219 107.457031 54.523438 108.050781 54.21875 C 108.628906 53.929688 108.835938 53.347656 108.511719 52.921875 C 107.933594 52.164062 107.355469 51.40625 106.777344 50.644531 Z M 112.265625 47.691406 C 111.941406 47.265625 111.230469 47.183594 110.664062 47.488281 C 110.082031 47.804688 109.5 48.125 108.917969 48.441406 C 108.351562 48.746094 108.148438 49.328125 108.472656 49.757812 L 110.203125 52.03125 C 110.527344 52.457031 111.253906 52.554688 111.816406 52.25 C 112.398438 51.933594 112.980469 51.613281 113.5625 51.296875 C 114.128906 50.988281 114.324219 50.394531 113.996094 49.964844 Z M 117.582031 44.542969 C 117.253906 44.117188 116.554688 44.050781 116.015625 44.386719 C 115.457031 44.738281 114.886719 45.070312 114.316406 45.402344 C 113.765625 45.726562 113.582031 46.339844 113.894531 46.75 L 115.628906 49.023438 C 115.953125 49.453125 116.664062 49.535156 117.207031 49.195312 C 117.773438 48.863281 118.34375 48.527344 118.902344 48.179688 C 119.445312 47.839844 119.625 47.226562 119.300781 46.800781 C 118.722656 46.042969 118.15625 45.300781 117.582031 44.542969 Z M 122.742188 41.160156 C 122.417969 40.734375 121.730469 40.683594 121.214844 41.050781 C 120.667969 41.417969 120.121094 41.785156 119.578125 42.148438 C 119.046875 42.503906 118.863281 43.113281 119.191406 43.542969 C 119.765625 44.300781 120.34375 45.058594 120.921875 45.816406 C 121.246094 46.242188 121.945312 46.308594 122.476562 45.957031 C 123.023438 45.589844 123.578125 45.242188 124.113281 44.859375 C 124.640625 44.507812 124.800781 43.863281 124.488281 43.453125 C 123.898438 42.675781 123.320312 41.917969 122.742188 41.160156 Z M 105.039062 57.3125 C 103.765625 57.933594 103.300781 59.160156 104 60.074219 L 121.792969 83.445312 C 122.488281 84.359375 124.070312 84.601562 125.347656 83.980469 C 133.023438 80.230469 140.410156 76.132812 147.257812 71.292969 C 148.398438 70.496094 148.71875 69.082031 148.035156 68.179688 C 142.101562 60.390625 136.171875 52.601562 130.242188 44.8125 C 129.542969 43.894531 128.09375 43.828125 126.960938 44.636719 C 120.101562 49.460938 112.71875 53.5625 105.039062 57.3125 Z M 127.699219 37.539062 C 127.371094 37.113281 126.710938 37.09375 126.203125 37.476562 C 125.683594 37.875 125.160156 38.269531 124.628906 38.652344 C 124.109375 39.023438 123.953125 39.667969 124.277344 40.09375 C 124.855469 40.851562 125.429688 41.609375 126.007812 42.367188 C 126.332031 42.792969 127.007812 42.828125 127.527344 42.460938 C 128.058594 42.078125 128.582031 41.683594 129.101562 41.285156 C 129.609375 40.898438 129.753906 40.238281 129.429688 39.8125 C 128.851562 39.054688 128.273438 38.296875 127.699219 37.539062 Z M 152.550781 70.179688 C 152.226562 69.753906 151.5625 69.734375 151.058594 70.121094 C 150.535156 70.515625 150.015625 70.914062 149.480469 71.296875 C 148.964844 71.664062 148.804688 72.308594 149.132812 72.734375 C 149.707031 73.492188 150.285156 74.253906 150.863281 75.011719 C 151.1875 75.4375 151.863281 75.472656 152.382812 75.101562 C 152.914062 74.722656 153.4375 74.324219 153.957031 73.929688 C 154.464844 73.542969 154.609375 72.882812 154.285156 72.457031 C 153.707031 71.699219 153.128906 70.9375 152.550781 70.179688 Z M 173.164062 52.765625 C 173.488281 53.191406 174.054688 53.085938 174.425781 52.527344 C 174.816406 51.957031 175.195312 51.367188 175.570312 50.78125 C 175.933594 50.207031 175.957031 49.390625 175.632812 48.960938 C 175.054688 48.203125 174.476562 47.445312 173.902344 46.6875 C 173.574219 46.261719 173.03125 46.398438 172.671875 46.972656 C 172.292969 47.5625 171.917969 48.148438 171.527344 48.71875 C 171.15625 49.277344 171.105469 50.0625 171.429688 50.492188 Z M 169.339844 57.875 C 169.664062 58.300781 170.253906 58.222656 170.664062 57.710938 C 171.078125 57.171875 171.503906 56.648438 171.902344 56.09375 C 172.300781 55.566406 172.351562 54.78125 172.039062 54.371094 C 171.460938 53.613281 170.882812 52.855469 170.304688 52.09375 C 169.980469 51.667969 169.414062 51.777344 169.015625 52.304688 C 168.601562 52.84375 168.191406 53.382812 167.777344 53.921875 C 167.367188 54.433594 167.292969 55.1875 167.617188 55.613281 C 168.183594 56.355469 168.761719 57.113281 169.339844 57.875 Z M 165.199219 62.597656 C 165.523438 63.023438 166.140625 62.980469 166.574219 62.5 C 167.023438 62.007812 167.472656 61.515625 167.90625 61.007812 C 168.328125 60.515625 168.414062 59.773438 168.089844 59.347656 L 166.359375 57.074219 C 166.035156 56.644531 165.429688 56.707031 165.007812 57.203125 C 164.570312 57.710938 164.121094 58.199219 163.671875 58.691406 C 163.238281 59.171875 163.140625 59.894531 163.453125 60.308594 C 164.042969 61.082031 164.621094 61.839844 165.199219 62.597656 Z M 160.796875 66.949219 C 161.121094 67.375 161.761719 67.359375 162.21875 66.914062 C 162.691406 66.453125 163.164062 65.992188 163.640625 65.53125 C 164.097656 65.085938 164.195312 64.359375 163.882812 63.949219 L 162.148438 61.675781 C 161.824219 61.25 161.199219 61.277344 160.753906 61.742188 C 160.277344 62.199219 159.804688 62.660156 159.332031 63.121094 C 158.863281 63.554688 158.753906 64.261719 159.066406 64.671875 Z M 156.140625 70.992188 C 156.464844 71.417969 157.128906 71.4375 157.609375 71.023438 C 158.121094 70.609375 158.617188 70.179688 159.113281 69.75 C 159.597656 69.335938 159.71875 68.644531 159.40625 68.230469 L 157.671875 65.957031 C 157.347656 65.53125 156.707031 65.542969 156.226562 65.960938 C 155.730469 66.386719 155.230469 66.816406 154.722656 67.230469 C 154.230469 67.628906 154.09375 68.308594 154.421875 68.734375 Z M 132.820312 33.285156 C 132.496094 32.859375 131.859375 32.871094 131.375 33.289062 C 130.878906 33.71875 130.382812 34.148438 129.871094 34.558594 C 129.378906 34.960938 129.246094 35.636719 129.570312 36.0625 L 131.300781 38.339844 C 131.625 38.765625 132.289062 38.785156 132.773438 38.367188 C 133.28125 37.953125 133.777344 37.527344 134.277344 37.097656 C 134.757812 36.679688 134.878906 35.988281 134.566406 35.578125 Z M 137.324219 29.035156 C 137 28.609375 136.371094 28.636719 135.925781 29.101562 C 135.453125 29.5625 134.980469 30.023438 134.503906 30.480469 C 134.035156 30.914062 133.925781 31.621094 134.238281 32.035156 C 134.816406 32.792969 135.394531 33.550781 135.972656 34.308594 C 136.296875 34.734375 136.933594 34.722656 137.394531 34.273438 C 137.867188 33.8125 138.339844 33.355469 138.8125 32.894531 C 139.269531 32.445312 139.367188 31.722656 139.054688 31.3125 Z M 141.53125 24.433594 C 141.207031 24.007812 140.601562 24.066406 140.183594 24.5625 C 139.746094 25.070312 139.296875 25.5625 138.847656 26.054688 C 138.414062 26.535156 138.316406 27.257812 138.628906 27.667969 C 139.207031 28.425781 139.78125 29.183594 140.359375 29.945312 C 140.683594 30.371094 141.300781 30.324219 141.734375 29.847656 C 142.183594 29.355469 142.632812 28.863281 143.070312 28.355469 C 143.492188 27.859375 143.578125 27.121094 143.25 26.691406 C 142.675781 25.933594 142.097656 25.175781 141.53125 24.433594 Z M 145.457031 19.425781 C 145.128906 19 144.5625 19.105469 144.164062 19.632812 C 143.753906 20.171875 143.339844 20.710938 142.925781 21.25 C 142.515625 21.761719 142.441406 22.515625 142.769531 22.945312 C 143.34375 23.703125 143.921875 24.460938 144.5 25.21875 C 144.824219 25.644531 145.417969 25.570312 145.824219 25.058594 C 146.238281 24.519531 146.664062 23.996094 147.066406 23.441406 C 147.460938 22.914062 147.511719 22.125 147.199219 21.714844 C 146.609375 20.941406 146.03125 20.183594 145.457031 19.425781 Z M 149.0625 14.03125 C 148.738281 13.605469 148.195312 13.746094 147.832031 14.320312 C 147.457031 14.90625 147.078125 15.492188 146.691406 16.0625 C 146.316406 16.621094 146.265625 17.410156 146.589844 17.835938 L 148.324219 20.109375 C 148.648438 20.539062 149.214844 20.429688 149.589844 19.871094 C 149.976562 19.300781 150.355469 18.714844 150.730469 18.128906 C 151.09375 17.554688 151.121094 16.734375 150.792969 16.308594 Z M 136.542969 36.992188 C 135.507812 37.929688 135.214844 39.378906 135.910156 40.292969 C 141.84375 48.082031 147.773438 55.875 153.703125 63.664062 C 154.402344 64.578125 155.804688 64.585938 156.851562 63.664062 C 163.097656 58.035156 168.640625 51.515625 173.238281 43.722656 C 174.007812 42.4375 174.015625 40.609375 173.328125 39.707031 C 167.398438 31.917969 161.46875 24.128906 155.535156 16.339844 C 154.839844 15.425781 153.703125 15.765625 152.945312 17.066406 C 148.351562 24.832031 142.789062 31.363281 136.542969 36.992188 Z M 152.335938 8.171875 C 152.011719 7.742188 151.492188 7.914062 151.167969 8.535156 C 150.824219 9.171875 150.484375 9.804688 150.144531 10.4375 C 149.808594 11.042969 149.792969 11.878906 150.105469 12.289062 L 151.839844 14.566406 C 152.164062 14.992188 152.707031 14.851562 153.03125 14.230469 C 153.382812 13.613281 153.726562 12.976562 154.054688 12.328125 C 154.378906 11.707031 154.382812 10.855469 154.054688 10.429688 Z M 177.191406 40.8125 C 176.867188 40.386719 176.347656 40.558594 176.019531 41.179688 C 175.679688 41.8125 175.339844 42.445312 175 43.082031 C 174.660156 43.6875 174.648438 44.519531 174.960938 44.933594 L 176.691406 47.207031 C 177.015625 47.632812 177.558594 47.496094 177.886719 46.871094 C 178.238281 46.253906 178.578125 45.621094 178.910156 44.972656 C 179.234375 44.347656 179.234375 43.5 178.910156 43.070312 C 178.34375 42.328125 177.769531 41.570312 177.191406 40.8125 Z M 177.191406 40.8125 " fill-opacity="1" fill-rule="nonzero"/></g></g></g></g></g></g></g></g></g></g></g><g transform="matrix(1, 0, 0, 1, 203, 67)"><g clip-path="url(#e4f709973a)"><g fill="#dc3545" fill-opacity="1"><g transform="translate(0.380128, 156.887323)"><g><path d="M 10.078125 -108.03125 L 34.28125 -108.03125 C 47.34375 -108.03125 56.847656 -105.484375 62.796875 -100.390625 C 68.753906 -95.296875 71.734375 -88.570312 71.734375 -80.21875 C 71.734375 -74.9375 70.695312 -70.28125 68.625 -66.25 C 66.5625 -62.21875 63.707031 -59.289062 60.0625 -57.46875 C 64.664062 -55.070312 68.3125 -51.878906 71 -47.890625 C 73.695312 -43.898438 75.046875 -38.019531 75.046875 -30.25 C 75.046875 -10.082031 59.148438 0 27.359375 0 L 10.078125 0 Z M 35.578125 -64.09375 C 41.140625 -64.09375 45.289062 -65.003906 48.03125 -66.828125 C 50.769531 -68.648438 52.140625 -72.394531 52.140625 -78.0625 C 52.140625 -83.050781 50.578125 -86.484375 47.453125 -88.359375 C 44.335938 -90.234375 40.09375 -91.171875 34.71875 -91.171875 L 30.53125 -91.171875 L 30.53125 -64.09375 Z M 35.140625 -16.859375 C 42.054688 -16.859375 47.050781 -18.5625 50.125 -21.96875 C 53.195312 -25.375 54.734375 -29.09375 54.734375 -33.125 C 54.734375 -39.363281 53.078125 -43.515625 49.765625 -45.578125 C 46.453125 -47.648438 41.816406 -48.6875 35.859375 -48.6875 L 31.25 -48.6875 L 31.25 -16.859375 Z M 35.140625 -16.859375 "/></g></g></g></g></g><g transform="matrix(1, 0, 0, 1, 97, 92)"><g clip-path="url(#5cbab1f8f0)"><g fill="#dc3545" fill-opacity="1"><g transform="translate(0.552286, 156.880105)"><g><path d="M 10.078125 0.859375 L 10.078125 -106.296875 L 31.25 -108.03125 L 31.25 -64.234375 L 51.421875 -64.234375 L 51.421875 -106.296875 L 72.59375 -108.03125 L 72.59375 -0.859375 L 51.421875 0.859375 L 51.421875 -44.9375 L 31.25 -44.9375 L 31.25 -0.859375 Z M 10.078125 0.859375 "/></g></g></g></g></g></svg>